# xmcd
#
# Track frame offsets:
#	150
#	13837
#	28104
#	40207
#	52762
#	65289
#	73592
#	89062
#	99383
#	111831
#	124286
#	133421
#	144600
#	156737
#
# Disc length: 2392
#
# Revision: 1
# Processed by: cddbd v1.5.1PL0 Copyright (c) Steve Scherf et al.
# Submitted via: CDex 1.50beta10
# Normalized: r0:TDELIM( - )
#
DISCID=d209560e
DTITLE=Various Artist - U.S. Academic Decathlon 2001 Presents Country Premium CD
DYEAR=2001
DGENRE=Country
TTITLE0=Mrs. Texas Gladden - The House Carpenter
TTITLE1=Eck Robertson - Sallie Gooden
TTITLE2=Johnny Lee Moore and 12 Mississippi Penitentiary Convicts - Eighteen Hammers
TTITLE3=The Carter Family - Single Girl, Married Girl
TTITLE4=Jimmie Rodgers - Waiting For A Train
TTITLE5=Roy Rogers And The Sons Of The Pioneers - A Cowboy Has To Sing
TTITLE6=Bob Willis And His Texas Playboys - New San Antonio Rose
TTITLE7=Bill Monroe And His Blue Grass Boys - Bluegrass Breakdown
TTITLE8=Hank Williams - Lovesick Blues
TTITLE9=Johnny Cash - I Walk The Line
TTITLE10=Patsy Cline - Walkin' After Midnight
TTITLE11=Buck Owens - Excuse Me (I Think I've Got A Headache)
TTITLE12=Gram Parsons - Still Feeling Blue
TTITLE13=Iris Dement - Our Town
EXTD=YEAR: 2001
EXTT0=
EXTT1=
EXTT2=
EXTT3=
EXTT4=
EXTT5=
EXTT6=
EXTT7=
EXTT8=
EXTT9=
EXTT10=
EXTT11=
EXTT12=
EXTT13=
PLAYORDER=
